<?xml version="1.0" encoding="UTF-8"?>
<svg id="Layer_1" data-name="Layer 1" xmlns="http://www.w3.org/2000/svg" viewBox="0 0 730.09 609.59">
  <defs>
    <style>

      .webLines {
        fill: none;
        stroke: #000;
        stroke-miterlimit: 10;
      }

      .chartMarker {
        stroke-width: 0px;
        fill: darkorchid;
        opacity: .5;
      }
      .svgText {
        font-family: "Open Sans", sans-serif;
        font-size: 1.2rem;
        font-weight: 600;
      }

    </style>
  </defs>
  <g>
    <polygon class="webLines" points="348.12 60.21 156.55 152.46 109.24 359.75 241.81 525.99 454.43 525.99 587 359.75 539.68 152.46 348.12 60.21"/>
    <polygon class="webLines" points="263.96 479.99 159.02 348.39 196.47 184.29 348.12 111.26 499.77 184.29 537.22 348.39 432.28 479.99 263.96 479.99"/>
    <polygon class="webLines" points="286.11 433.99 208.79 337.03 236.39 216.13 348.12 162.32 459.85 216.13 487.44 337.03 410.12 433.99 286.11 433.99"/>
    <polygon class="webLines" points="308.26 387.99 258.57 325.67 276.3 247.96 348.12 213.38 419.93 247.96 437.67 325.67 387.97 387.99 308.26 387.99"/>
    <polygon class="webLines" points="330.42 341.99 308.34 314.31 316.22 279.79 348.12 264.43 380.02 279.79 387.89 314.31 365.82 341.99 330.42 341.99"/>
    <line class="webLines" x1="156.55" y1="152.46" x2="348.12" y2="305.23"/>
    <line class="webLines" x1="539.68" y1="152.46" x2="348.12" y2="305.23"/>
    <line class="webLines" x1="348.12" y1="60.21" x2="348.12" y2="305.23"/>
    <line class="webLines" x1="109.24" y1="359.75" x2="348.12" y2="305.23"/>
    <line class="webLines" x1="241.81" y1="525.99" x2="348.12" y2="305.23"/>
    <line class="webLines" x1="454.43" y1="525.99" x2="348.12" y2="305.23"/>
    <line class="webLines" x1="587" y1="359.75" x2="348.12" y2="305.23"/>
    <path class="chartMarker" d="m109.24,359.75c29.08-58.49,58.15-116.97,87.23-175.46,50.55-37.75,101.1-75.5,151.65-113.26,60.13,30.11,120.26,60.22,180.39,90.34,19.5,66.13,38.99,132.25,58.49,198.38-62.15,18.12-124.3,36.23-186.45,54.35-43.33,17.39-86.66,34.78-129.98,52.17l-161.33-106.52Z"/>
  </g>
  <text class="svgText" transform="translate(279 17.58)">
    <tspan class="svgText" x="0" y="0">User Experience </tspan>
    <tspan x="18.47" y="25.2">(UX) Design</tspan>
  </text>
  <text class="svgText" transform="translate(539 114.1)">
    <tspan class="svgText" x="0" y="0">Web, Mobile &amp; </tspan>
    <tspan class="svgText" x="2.28" y="25.2">User Interface </tspan>
    <tspan x="14.9" y="50.4">(UI) Design</tspan>
  </text>
  <text class="svgText" transform="translate(617.67 346.05)">
    <tspan class="svgText" x="0" y="0">Creative </tspan>
    <tspan class="svgText" x="-2.5" y="25.2">Software</tspan><tspan x="-18.97" y="50.4">(e.g., Adobe)</tspan>
  </text>
  <text class="svgText" transform="translate(431.75 553.94)">
    <tspan class="cls-21" x="0" y="0">Creative </tspan>
    <tspan class="cls-21" x="-9.28" y="25.2">Strategy &amp; </tspan>
    <tspan class="cls-10" x="-13.31" y="50.4">Campaigns</tspan>
  </text>
  <text class="svgText" transform="translate(181.95 553.94)">
    <tspan x="0" y="0">Branding &amp; </tspan>
    <tspan x="14.69" y="25.2">Identity</tspan>
  </text>
  <text class="svgText" transform="translate(40.5 346.05)">
    <tspan class="svgText" x="0" y="0">Visual  </tspan>
    <tspan x="-2" y="25.2">Design</tspan>
  </text>

  <text class="svgText" transform="translate(40.5 129.66)">
    <tspan class="svgText" x="0" y="0">Art/Creative</tspan>
    <tspan x="12.56" y="25.2">Direction</tspan>
  </text>

</svg>